PathFileType	4	(X/Y/Z)	c:/Users/goper/Files/vsCode/490R/osim_files/C12/C12_Slow_02.trc
DataRate	CameraRate	NumFrames	NumMarkers	Units                	OrigDataRate	OrigDataStartFrame	OrigNumFrames
120.00	120.00	8	36	mm	120.0	752	1502
                Frame#	Time	LPSIS			LASIS			LTH1			LTH2			LTH3			LTH4			LLFE			LMFE			LSH1			LSH2			LSH3			LSH4			LLMAL			LMMAL			LCAL			LMTP5			LTOE			LMTP1			RPSIS			RASIS			RTH1			RTH2			RTH3			RTH4			RLFE			RMFE			RSH1			RSH2			RSH3			RSH4			RLMAL			RMMAL			RCAL			RMTP1			RTOE			RMTP5		
		X1	Y1	Z1	X2	Y2	Z2	X3	Y3	Z3	X4	Y4	Z4	X5	Y5	Z5	X6	Y6	Z6	X7	Y7	Z7	X8	Y8	Z8	X9	Y9	Z9	X10	Y10	Z10	X11	Y11	Z11	X12	Y12	Z12	X13	Y13	Z13	X14	Y14	Z14	X15	Y15	Z15	X16	Y16	Z16	X17	Y17	Z17	X18	Y18	Z18	X19	Y19	Z19	X20	Y20	Z20	X21	Y21	Z21	X22	Y22	Z22	X23	Y23	Z23	X24	Y24	Z24	X25	Y25	Z25	X26	Y26	Z26	X27	Y27	Z27	X28	Y28	Z28	X29	Y29	Z29	X30	Y30	Z30	X31	Y31	Z31	X32	Y32	Z32	X33	Y33	Z33	X34	Y34	Z34	X35	Y35	Z35	X36	Y36	Z36

752	6.25833	-871.59637	1081.64526	331.37708	-1046.11194	1042.21716	397.36603	-1003.88025	761.05042	464.45367	-1024.10779	718.04407	464.29880	-1061.25049	779.92993	475.20731	-1071.55933	737.02942	474.98840	-1106.93909	558.42133	453.03876	-1132.59802	546.73657	327.36154	-1013.57153	514.60260	456.27469	-983.18542	478.26151	462.01151	-1057.23767	472.54535	464.01923	-1020.75610	441.89578	465.20865	-807.03070	243.49449	410.03592	-832.23193	234.56544	333.75375	-751.65430	272.87253	361.30307	-842.49939	98.26576	437.31531	-912.05298	86.05836	380.36920	-876.88727	86.97215	333.34598	-864.37640	1081.00134	217.58452	-1048.00745	1047.21924	141.20358	-962.65918	757.22443	96.60550	-970.28949	713.06738	105.19685	-1025.83569	759.98730	96.83763	-1024.59521	713.04254	103.83851	-990.29071	535.38605	149.84482	-991.03180	541.03125	283.16559	-922.37646	441.29840	132.52605	-920.35706	398.73947	127.96661	-984.16534	431.16656	139.68924	-972.93970	390.04990	132.16524	-911.36261	109.00748	182.66698	-926.94257	119.99345	264.12891	-836.85187	76.94482	222.36691	-1050.39282	46.89737	262.82745	-1093.01111	64.29327	229.25226	-1055.92444	40.71478	153.80817
753	6.26667	-880.32666	1082.50879	331.59647	-1054.84253	1043.09094	396.73288	-1015.67120	763.12427	464.74408	-1036.28516	720.25922	464.70508	-1073.27979	782.71100	474.52347	-1084.54504	739.92206	474.43033	-1121.99561	561.34064	452.07516	-1146.14075	550.49457	326.23273	-1029.68469	513.94049	455.90744	-1000.30872	476.76843	461.54095	-1074.76428	473.67795	463.15814	-1039.14502	441.66888	464.29700	-831.71149	236.51588	411.39960	-857.31683	227.59586	333.77530	-775.81061	262.17139	360.65228	-874.29706	93.48099	438.99902	-944.25751	83.58171	382.18393	-909.14716	82.10081	335.35873	-872.96417	1081.98010	217.91977	-1056.50244	1047.68530	140.66609	-968.01978	758.04175	96.63992	-975.10101	713.78595	105.15410	-1031.23291	760.06372	96.76671	-1029.37622	713.12671	103.67287	-992.24280	535.77905	149.87494	-993.68713	541.20819	283.29639	-923.89264	442.03812	132.69398	-921.68079	399.42694	128.17380	-985.81506	431.73099	139.69701	-974.37445	390.55655	132.25705	-911.79602	109.73584	182.73833	-930.02112	122.22518	265.17447	-837.07751	77.96335	222.31116	-1050.48950	46.81490	262.74368	-1093.28113	64.12214	229.22823	-1055.99866	40.63192	153.78673
754	6.27500	-889.00562	1083.16455	331.90866	-1063.58936	1043.82178	396.06934	-1027.11731	765.25281	467.28070	-1049.42871	722.24677	465.80957	-1085.48889	784.89874	474.33749	-1097.58032	742.52081	474.33972	-1136.52612	564.05688	450.64105	-1159.45007	553.88153	324.79932	-1045.17981	513.04584	455.27112	-1017.40906	475.37054	461.62607	-1091.68799	474.55557	461.96164	-1057.90515	441.59369	463.22208	-856.74463	228.87096	411.28253	-883.10486	220.88860	333.94400	-803.07288	249.15390	359.39337	-906.70844	88.79575	440.90771	-976.79303	81.54150	384.05591	-941.84467	77.37805	337.04327	-881.54858	1082.73108	218.16748	-1064.75122	1048.02271	140.28593	-973.42401	758.81964	96.64366	-980.30243	714.17645	105.25452	-1036.74109	760.12555	96.64207	-1034.22449	713.14465	103.60934	-994.17419	536.23047	149.86130	-996.21362	541.36810	283.44489	-925.47461	442.74969	132.77003	-923.20685	400.12921	128.21152	-987.31573	432.12668	139.89919	-975.77942	391.11328	132.37491	-912.38910	110.40349	182.75636	-930.54761	122.84560	265.23605	-837.79095	78.59071	222.61671	-1050.60815	46.84185	262.67303	-1093.55957	63.97451	229.17488	-1056.08899	40.57717	153.75716
755	6.28333	-897.76941	1083.70190	332.18155	-1072.49048	1044.53174	395.53885	-1039.63818	766.82458	467.47812	-1062.19409	724.01849	466.16898	-1097.54675	787.25372	473.77737	-1110.48132	744.94916	474.40652	-1150.57983	566.57098	449.05182	-1172.40527	556.75122	323.31509	-1060.82666	511.68338	454.49753	-1034.21533	473.16989	461.31198	-1108.45215	475.11969	460.67429	-1076.05054	440.88696	462.15289	-882.46411	220.85194	411.31021	-909.11542	213.33028	334.60034	-827.59857	237.66338	359.20743	-939.64258	84.15919	442.52438	-1010.59454	80.08936	385.56253	-975.40662	73.24529	338.78690	-890.07483	1083.37415	218.54759	-1073.07935	1048.28198	139.89337	-978.75977	759.46637	96.67356	-984.50189	715.18842	105.00122	-1042.12988	760.05664	96.55251	-1038.93408	713.16327	103.51223	-996.02673	536.58978	149.82545	-999.35651	541.57794	283.21909	-927.14844	443.50330	132.79260	-924.77887	400.72858	128.31007	-988.97113	432.60254	139.90552	-977.16864	391.55255	132.49855	-912.93420	111.07870	182.72324	-931.04755	123.41288	265.26947	-838.16486	79.64011	222.74611	-1050.36121	46.53689	262.47305	-1093.82947	63.84322	229.10718	-1056.18884	40.49757	153.70467
756	6.29167	-906.38629	1084.03369	332.60889	-1081.29224	1045.34143	394.98840	-1051.94409	768.23840	467.62122	-1072.23059	726.42902	467.13538	-1110.07007	789.53296	473.22830	-1123.16602	747.11871	474.49011	-1164.25220	568.72992	447.40286	-1184.22998	559.05389	321.52066	-1075.92603	510.03580	454.07532	-1050.83984	470.55011	460.95590	-1124.96619	475.29468	459.34900	-1093.95715	439.77573	461.10480	-909.47388	211.77266	410.89651	-935.45862	205.67780	334.99295	-852.84760	225.85513	359.24115	-972.92017	79.58395	444.11783	-1043.86841	78.57080	386.99988	-1008.94519	69.36568	340.85101	-898.74609	1083.78271	219.02477	-1081.49683	1048.50317	139.60834	-984.37177	760.01239	96.77953	-989.46387	715.72650	104.96889	-1047.47314	759.91156	96.59345	-1043.89856	713.11407	103.58356	-997.85272	536.94843	149.79398	-1001.74567	541.82330	283.28833	-928.98297	444.14691	132.84149	-926.29370	401.42902	128.42747	-990.66693	433.01376	140.17227	-978.82184	392.12463	132.69357	-913.28290	111.79733	182.72894	-930.24408	123.97025	264.14569	-838.56262	80.52170	222.90619	-1050.45703	46.53918	262.45432	-1094.11560	63.67708	229.04842	-1056.24438	40.44555	153.66710
757	6.30000	-915.05560	1084.00867	333.18649	-1090.20740	1045.29077	394.66794	-1064.27563	769.22192	467.59354	-1084.45837	727.73529	467.32910	-1121.78528	791.14899	472.76523	-1135.55286	748.94098	474.44980	-1177.63379	570.49158	445.72845	-1196.80737	561.31445	320.10571	-1090.25183	507.82468	453.95312	-1067.41980	467.53745	460.84485	-1141.72437	475.60986	457.64230	-1111.80469	438.52533	460.04559	-936.37000	203.14999	411.29675	-962.24548	197.86604	335.22745	-878.59265	213.85548	359.55023	-1006.66754	75.17820	445.73077	-1077.48792	77.13892	388.50946	-1045.10461	65.90923	340.17877	-907.24908	1084.00769	219.59245	-1089.74609	1048.60620	139.42012	-989.77252	760.56848	96.82178	-994.54175	716.13556	105.13626	-1053.04565	759.72974	96.76682	-1048.77710	713.01465	103.70748	-999.79095	537.29144	149.83974	-1004.13635	542.04236	283.44601	-930.67279	444.73880	132.94324	-927.86517	402.04117	128.55470	-992.27423	433.53531	140.24864	-980.24591	392.61362	132.91266	-913.72437	112.49064	182.90088	-931.09601	123.99863	263.77283	-838.90393	81.44601	223.12071	-1050.53650	46.51733	262.45374	-1094.49805	63.51601	229.13222	-1056.31091	40.39903	153.63921
758	6.30833	-923.70398	1083.91809	333.70349	-1098.89648	1045.38220	394.36795	-1075.97046	769.97162	467.55496	-1096.62000	728.63367	467.20956	-1133.73340	792.61298	472.58133	-1147.55981	750.32770	474.14484	-1190.64185	571.82910	443.91110	-1208.49451	563.86603	318.92877	-1105.00159	505.60178	453.54120	-1084.95642	463.93732	460.03296	-1157.68701	475.45218	456.37680	-1129.43359	437.13925	459.06030	-963.64636	194.44507	411.84290	-989.32068	189.97655	335.42191	-904.90692	201.67833	360.11661	-1040.79224	71.07212	447.20230	-1111.19263	76.19750	389.68027	-1071.33350	58.29835	345.12189	-915.77991	1084.23071	220.24622	-1098.03406	1048.54492	139.20563	-995.31586	760.96667	96.86809	-999.46979	716.53711	105.23613	-1058.50745	759.38873	96.91567	-1053.99646	712.76862	103.96839	-1001.73718	537.53113	150.02010	-1006.56097	542.20050	283.58398	-932.31158	445.34729	133.09500	-929.48859	402.71991	128.73341	-993.91754	433.95682	140.61925	-981.79517	393.05911	133.19951	-914.30536	113.13367	183.01485	-931.93909	124.40478	263.96689	-839.44043	82.18562	223.23747	-1050.64380	46.46144	262.46075	-1094.76917	63.37435	229.13618	-1056.38013	40.37782	153.62764
759	6.31667	-932.42328	1083.75659	334.36893	-1114.91345	1047.14453	395.36835	-1087.76404	770.39929	467.34500	-1107.98267	729.40649	466.70938	-1144.82739	793.29688	471.76700	-1159.15039	751.25690	473.50043	-1203.07898	572.77600	442.09546	-1219.42859	564.56299	316.51505	-1119.44250	503.22540	452.94614	-1101.31738	460.48480	459.59512	-1172.13696	476.18173	456.09180	-1146.77905	435.72055	458.01758	-991.38727	185.70955	412.49490	-1016.73926	182.17752	335.90491	-959.38983	175.23230	361.00629	-1075.12024	67.26079	448.43692	-1144.66602	75.44394	390.57083	-1111.13452	59.32833	344.96695	-924.27148	1084.17139	220.89104	-1106.20190	1048.40051	139.11176	-1000.89667	761.26282	96.97670	-1004.54547	716.73932	105.42461	-1064.02136	758.96179	97.19968	-1058.91223	712.38416	104.25321	-1003.73370	537.77032	150.13557	-1009.01471	542.25049	283.68774	-934.00549	445.92523	133.32956	-930.97241	403.23343	128.94588	-995.60938	434.29413	140.79526	-983.26117	393.52951	133.39372	-914.77228	113.68317	183.08490	-931.98120	125.45454	264.71817	-839.90961	82.86742	223.47440	-1050.75232	46.91573	262.02490	-1094.94971	63.21099	229.13007	-1056.40857	40.34080	153.60039
